<?xml version="1.0" encoding="UTF-8" standalone="no" ?>
<!DOCTYPE svg PUBLIC "-//W3C//DTD SVG 1.1//EN" "http://www.w3.org/Graphics/SVG/1.1/DTD/svg11.dtd">
<svg xmlns="http://www.w3.org/2000/svg" xmlns:xlink="http://www.w3.org/1999/xlink" version="1.1" viewBox="0 0 494 467" xml:space="preserve">
<desc>Created with Fabric.js 1.6.0</desc>
<defs></defs>
<g style="stroke: none; stroke-width: 1; stroke-dasharray: none; stroke-linecap: butt; stroke-linejoin: miter; stroke-miterlimit: 10; fill: #ffffff; fill-rule: nonzero; opacity: 1;" transform="translate(29.25 17) scale(0.87 0.87)" >
	<circle cx="250" cy="250" r="250" style="stroke: none; stroke-width: 1; stroke-dasharray: none; stroke-linecap: butt; stroke-linejoin: miter; stroke-miterlimit: 10; fill: #ffffff; fill-rule: evenodd; opacity: 1;" transform=" "/>
</g>
<g style="stroke: none; stroke-width: 1; stroke-dasharray: none; stroke-linecap: butt; stroke-linejoin: miter; stroke-miterlimit: 10; fill: #0277bd; fill-rule: nonzero; opacity: 1;" transform="translate(47.75 73) scale(0.8 0.74)" >
	<path d="M 248.06 143.81 c 7.84 26.18 11.39 56.93 18.76 83.61 c 10 -3.21 18.45 -8.13 29.69 -10 c -3.93 10.84 -7.79 21.77 -12.49 31.78 c 5.5 10.83 19.84 12.21 25 23.41 c -8.71 2.38 -16.14 6.14 -23.44 10 c 1.92 10.21 2.42 21.94 4.69 31.78 c -10 -1 -17.61 -4.58 -25 -8.37 c -7.83 8.91 -10.85 22.95 -15.62 35.12 c -5.1 -11.27 -8.87 -24 -14.07 -35.12 a 126 126 0 0 0 -25 10 c -2.5 -7.74 1.66 -22.71 3.12 -31.77 c -6.21 -5.62 -14.62 -8.87 -23.44 -11.7 c 5.18 -10.62 17.41 -13.71 25 -21.74 c -4.26 -11.06 -9.2 -21.37 -12.51 -33.44 c 10.95 1.68 18.59 6.87 28.13 10 C 239.32 202.47 244.31 173.79 248.06 143.81 Z" style="stroke: none; stroke-width: 1; stroke-dasharray: none; stroke-linecap: butt; stroke-linejoin: miter; stroke-miterlimit: 10; fill: #0277bd; fill-rule: evenodd; opacity: 1;" transform=" matrix(1 0 0 1 0 0) " stroke-linecap="round" />
	<path d="M 190.24 195.65 c -8.38 26.75 -17 54 -14.06 83.61 c 3.78 37.53 42.63 87.35 79.71 81.94 c 15 -2.19 35.53 -19.88 45.31 -31.77 c 26.56 -32.27 29 -90 6.25 -130.44 c 27.09 17.16 45.82 57.47 43.75 95.32 c -2.27 41.82 -29.08 79.81 -57.82 98.66 c -17.55 11.51 -38.15 18.9 -43.75 43.48 c -5.91 -22.94 -25.43 -31.35 -43.77 -43.48 c -41.23 -27.27 -81.3 -99.84 -42.19 -165.55 C 170.76 215.53 179.47 209.62 190.24 195.65 Z" style="stroke: none; stroke-width: 1; stroke-dasharray: none; stroke-linecap: butt; stroke-linejoin: miter; stroke-miterlimit: 10; fill: #0277bd; fill-rule: evenodd; opacity: 1;" transform=" matrix(1 0 0 1 0 0) " stroke-linecap="round" />
	<path d="M 401.23 145.49 c 23.33 -27.43 37.79 -64.36 51.57 -102 C 486 90 439.84 143.91 420 175.59 c 27.34 -16.47 34.33 -54.69 56.27 -76.92 c 28.31 63.3 -28.39 97.22 -61 122.07 c 29.68 -6.15 48.72 -38.15 78.14 -50.17 c 4.71 54.72 -33.92 77.37 -73.46 90.3 c 36.07 8.49 51.37 -19.73 78.15 -26.75 c 6.56 19.19 -5.34 43.32 -15.62 55.18 c -16.85 2.6 -31.71 7.32 -50 8.36 c 14.83 3.59 38 1.64 53.14 0 c 10.87 33.52 -26.37 49.54 -61 40.13 c 12 7.82 36.27 2.43 50 8.36 c -0.78 24.93 -22.8 33.74 -46.87 28.43 c 6.54 4.7 15.73 6.58 25 8.36 c -1.24 35.32 -55.43 24.72 -68.76 8.36 c 5.58 15.23 40.57 13.45 46.89 33.45 c -14 19.83 -48.8 6.73 -57.82 -8.37 c 3.44 10.27 23.69 17 31.25 28.43 c -5.26 13.81 -37.59 9.83 -43.75 0 c -0.9 8.23 15.49 12.38 14.06 26.75 c -16.68 5.05 -27.15 -8.07 -37.51 -15 c 2.41 10.25 8.54 16.51 10.94 26.75 c -17.92 5.76 -26.44 -8.4 -34.38 -18.39 c -2 6.92 11.21 19.92 7.81 28.43 c -17 -0.79 -24.87 -11.29 -34.38 -20.06 c -5.62 8.22 3.49 20.8 0 26.75 c -10.79 -1.27 -13.36 -11.33 -21.88 -15 c -16.14 -51.11 26.78 -69.62 51.57 -90.3 c 29.87 -24.93 59 -63.68 46.89 -127.09 c -4.07 -21.41 -13.58 -33.84 -26.57 -51.84 C 379.88 161.67 389.61 72.29 415.29 0 c 50.76 33.25 8.43 109.24 -12.5 142.14 C 402.5 143.49 401.21 143.8 401.23 145.49 Z" style="stroke: none; stroke-width: 1; stroke-dasharray: none; stroke-linecap: butt; stroke-linejoin: miter; stroke-miterlimit: 10; fill: #0277bd; fill-rule: evenodd; opacity: 1;" transform=" matrix(1 0 0 1 0 0) " stroke-linecap="round" />
	<path d="M 162.11 456.52 c -11 5.93 -20.87 20.56 -37.5 15 c -0.81 -15.35 10.51 -17.74 15.62 -26.75 c -4.44 5.82 -34.14 14.4 -45.33 3.34 c 4.67 -16.19 22.76 -18 31.26 -30.1 c -11.09 12.22 -44 27 -57.83 6.69 c 6.37 -19.94 35.07 -16 45.33 -31.77 c -15.59 15.15 -64.59 23.1 -68.76 -8.37 c 8.26 -3.42 17.56 -5.74 26.57 -8.36 c -21.86 2 -45.79 -4.7 -48.45 -28.43 c 11.31 -8.51 35.82 -2.91 50 -8.36 c -31.5 6.75 -74.29 -10 -59.39 -41.8 c 15.72 2.69 35.16 1.4 53.14 1.68 c -15.54 -7.76 -32.41 -1.94 -46.89 -8.37 C 2.37 283.2 -2.53 254 1.14 234.12 c 27 7.84 38.64 32.22 76.58 28.43 c -36.81 -15.37 -79.75 -39.7 -71.9 -92 c 28 14.06 46.7 38.11 75 51.84 C 59.89 195.54 -10.4 164.75 23 98.66 c 20.58 24.24 30.28 60.13 56.26 78.59 C 59.62 143 12.59 92 44.9 43.48 C 59.66 81.19 76.49 116.7 96.47 148.83 C 80.5 111.41 32.21 40.67 80.84 0 C 95.72 13.81 95.08 37.48 99.6 56.86 c 13.11 56.27 33.51 116.23 61 160.53 c -60 63.47 -11.44 178.9 53.13 197.33 C 227.46 430.45 243.21 454.88 234 485 c -9.11 3.07 -11.66 13.16 -21.88 15 c -2 -5.11 1.26 -17 0 -26.75 c -9.35 8 -20.41 22.54 -35.94 18.39 c 1.74 -9.84 6.83 -16.1 9.37 -25.09 c -6.94 3.37 -16.42 24.85 -34.38 16.72 C 153.24 472.68 158.46 465.44 162.11 456.52 Z" style="stroke: none; stroke-width: 1; stroke-dasharray: none; stroke-linecap: butt; stroke-linejoin: miter; stroke-miterlimit: 10; fill: #0277bd; fill-rule: evenodd; opacity: 1;" transform=" matrix(1 0 0 1 0 0) " stroke-linecap="round" />
</g>
<g style="stroke: none; stroke-width: 1; stroke-dasharray: none; stroke-linecap: butt; stroke-linejoin: miter; stroke-miterlimit: 10; fill: #ffffff; fill-rule: nonzero; opacity: 1;" transform="translate(196.5 189) scale(0.2 0.27)" >
	<circle cx="250" cy="250" r="250" style="stroke: none; stroke-width: 1; stroke-dasharray: none; stroke-linecap: butt; stroke-linejoin: miter; stroke-miterlimit: 10; fill: #ffffff; fill-rule: evenodd; opacity: 1;" transform=" "/>
</g>
<g style="stroke: none; stroke-width: 1; stroke-dasharray: none; stroke-linecap: butt; stroke-linejoin: miter; stroke-miterlimit: 10; fill: #ffffff; fill-rule: nonzero; opacity: 1;" transform="translate(234.25 180.25) scale(0.05 0.03)" >
	<circle cx="250" cy="250" r="250" style="stroke: none; stroke-width: 1; stroke-dasharray: none; stroke-linecap: butt; stroke-linejoin: miter; stroke-miterlimit: 10; fill: #ffffff; fill-rule: evenodd; opacity: 1;" transform=" "/>
</g>
<g style="stroke: none; stroke-width: 1; stroke-dasharray: none; stroke-linecap: butt; stroke-linejoin: miter; stroke-miterlimit: 10; fill: #0277bd; fill-rule: nonzero; opacity: 1;" transform="translate(199.99 233.72999999999996) scale(0.18 0.18)" >
	<path d="M 277.26 89.12 c 23.46 6.19 48.27 11 66.72 22.23 C 360.31 99.9 362.44 75.43 385 73.71 c 42.66 -3.24 26.42 53 5.14 70.15 c 14.35 13.59 25.61 30.27 37.64 46.19 c 26.76 -14.62 67.53 -9.17 61.58 23.95 c -3.06 17.07 -26 20.21 -42.76 27.38 c 3.17 17.93 6.17 36 5.13 58.15 c 17.88 9.91 45 9.42 47.9 30.81 c 4.1 29.71 -28.15 35.8 -58.16 25.66 C 417.58 406.2 385.35 448.11 332 468.89 c 4.44 -22.57 -5.93 -42.31 0 -61.58 c 3.29 -10.69 17.9 -15.86 24 -22.24 c 21.82 -23 41.15 -57.92 37.63 -107.78 C 388.34 202.88 330.22 154.49 267 149 c -78.64 -6.84 -145.62 50.56 -152.25 126.59 C 109.29 338 137.59 369 171.19 402.17 v 65 c -50.51 -21.36 -83.66 -60 -104.35 -111.2 C 35.77 365.64 -2.42 366.35 0.12 333.74 c 1.91 -24.48 32.63 -24.55 54.75 -32.5 c -1.09 -20.49 1.43 -37.35 3.42 -54.75 c -16.12 -10.88 -44.36 -11.05 -47.9 -30.79 C 4 179.87 49.53 178 75.39 193.46 c 13.27 -13 22 -30.49 34.21 -44.48 c -18 -20 -38.89 -74.52 3.42 -73.55 c 23.17 0.52 28.35 24.58 41.06 39.34 a 282.12 282.12 0 0 1 68.43 -23.95 C 205.36 12 294.87 11 277.26 89.12 Z" style="stroke: none; stroke-width: 1; stroke-dasharray: none; stroke-linecap: butt; stroke-linejoin: miter; stroke-miterlimit: 10; fill: #0277bd; fill-rule: evenodd; opacity: 1;" transform=" matrix(1 0 0 1 0 -31.11) " stroke-linecap="round" />
</g>
<g style="stroke: none; stroke-width: 1; stroke-dasharray: none; stroke-linecap: butt; stroke-linejoin: miter; stroke-miterlimit: 10; fill: #0277bd; fill-rule: nonzero; opacity: 1;" transform="translate(225.75 260.33) scale(0.08 0.08)" >
	<circle cx="250" cy="250" r="250" style="stroke: none; stroke-width: 1; stroke-dasharray: none; stroke-linecap: butt; stroke-linejoin: miter; stroke-miterlimit: 10; fill: #0277bd; fill-rule: evenodd; opacity: 1;" transform=" "/>
</g>
</svg>