<?xml version="1.0" standalone="no"?>
<!DOCTYPE svg PUBLIC "-//W3C//DTD SVG 20010904//EN"
 "http://www.w3.org/TR/2001/REC-SVG-20010904/DTD/svg10.dtd">
<svg version="1.0" xmlns="http://www.w3.org/2000/svg"
 width="988.000000pt" height="988.000000pt" viewBox="0 0 988.000000 988.000000"
 preserveAspectRatio="xMidYMid meet">
<metadata>
Created by potrace 1.11, written by Peter Selinger 2001-2013
</metadata>
<g transform="translate(0.000000,988.000000) scale(0.100000,-0.100000)"
fill="#000000" stroke="none">
<path d="M4883 8526 c-25 -43 -160 -189 -238 -255 -349 -298 -784 -487 -1305
-567 -144 -23 -501 -25 -635 -6 -153 23 -375 80 -490 127 -60 24 -110 43 -111
42 -1 -1 -7 -177 -14 -392 -38 -1326 121 -2566 459 -3580 174 -523 489 -1225
714 -1590 228 -370 384 -574 626 -816 356 -355 795 -629 1009 -629 239 0 769
374 1132 799 277 325 480 640 700 1086 318 645 566 1378 714 2115 177 877 237
1905 170 2891 l-6 97 -87 -29 c-102 -35 -175 -53 -331 -80 -146 -27 -489 -37
-652 -20 -487 51 -910 203 -1263 454 -107 76 -294 255 -340 325 -30 45 -39 50
-52 28z m-947 -1369 c96 -105 134 -229 100 -327 -8 -24 -13 -47 -10 -49 3 -3
43 -4 88 -3 65 2 95 -2 139 -18 56 -21 132 -84 156 -129 11 -20 8 -23 -35 -43
-59 -26 -158 -22 -219 10 -39 19 -107 86 -131 127 -10 17 -14 16 -67 -19 -54
-36 -132 -114 -123 -124 3 -2 21 2 42 8 118 39 271 -20 332 -128 l23 -41 -38
-17 c-24 -11 -65 -18 -113 -18 -64 -1 -84 3 -135 28 -33 17 -81 51 -108 78
-54 54 -59 54 -118 -9 -38 -40 -109 -136 -109 -147 0 -13 33 -5 82 20 91 46
181 22 302 -81 49 -41 42 -54 -42 -86 -47 -17 -71 -20 -137 -16 -91 5 -141 26
-204 83 l-39 34 -35 -52 c-34 -53 -107 -191 -107 -204 0 -4 10 2 23 14 40 38
97 56 177 56 63 0 85 -5 141 -32 36 -17 74 -40 84 -52 18 -20 18 -21 -5 -45
-13 -14 -48 -34 -79 -46 -107 -40 -252 -17 -328 53 l-21 20 -25 -39 c-28 -42
-87 -203 -87 -236 0 -18 12 -9 68 45 92 90 95 91 189 73 84 -16 173 -42 187
-56 13 -12 -38 -75 -85 -105 -22 -13 -67 -32 -102 -41 -52 -13 -72 -14 -126
-4 -35 7 -77 19 -93 27 -55 28 -78 -23 -78 -171 l0 -90 23 40 c17 29 38 47 82
69 54 27 72 30 179 34 l118 5 -7 -24 c-48 -154 -195 -237 -353 -201 -38 9 -43
8 -54 -11 -14 -28 -25 -312 -11 -304 6 4 32 45 59 93 26 47 63 97 81 111 40
31 112 53 172 53 25 0 64 5 86 10 22 5 41 7 44 5 8 -8 -42 -131 -71 -172 -59
-87 -133 -123 -265 -130 l-93 -6 0 -42 c0 -54 16 -143 42 -230 l21 -70 16 65
c30 119 85 188 198 244 27 14 69 28 93 32 l43 7 -6 -68 c-8 -83 -50 -177 -102
-230 -41 -41 -117 -80 -177 -90 -21 -4 -38 -10 -38 -14 1 -60 147 -363 162
-336 5 8 7 63 6 122 -4 131 3 144 123 228 44 31 89 70 99 88 l19 31 18 -39
c13 -29 18 -67 18 -140 0 -87 -3 -106 -24 -148 -34 -66 -116 -141 -179 -163
l-51 -18 36 -68 c35 -68 138 -189 193 -228 l28 -20 -20 52 c-48 127 -10 246
119 374 41 41 78 74 82 74 5 0 17 -21 27 -47 28 -71 26 -212 -4 -277 -30 -66
-82 -128 -137 -162 -25 -16 -45 -33 -45 -39 0 -19 120 -125 216 -189 97 -65
99 -66 102 -41 2 17 -8 38 -32 66 -45 53 -60 115 -46 189 14 74 62 167 120
232 l48 53 25 -23 c14 -13 36 -47 48 -75 20 -44 23 -69 24 -162 0 -133 -22
-197 -90 -271 -52 -55 -52 -56 39 -103 66 -35 135 -42 157 -15 19 23 66 13
165 -37 l84 -41 0 -67 c0 -96 -36 -165 -146 -276 -129 -130 -172 -237 -161
-405 12 -187 109 -336 272 -416 203 -99 428 -62 585 95 175 176 198 445 55
639 -23 33 -58 69 -76 82 -104 71 -149 150 -149 260 l0 60 52 29 c29 17 78 40
109 52 l57 21 30 -22 c24 -18 38 -21 66 -16 28 5 158 59 175 72 2 2 -10 18
-26 37 -44 50 -69 95 -93 167 -42 125 -12 310 61 376 21 19 21 19 56 -21 90
-102 133 -198 133 -295 0 -72 -11 -103 -55 -152 -35 -38 -45 -68 -24 -68 21 0
125 61 175 102 72 59 144 128 144 137 0 4 -12 14 -26 22 -42 22 -120 114 -151
177 -22 45 -29 74 -32 139 -3 88 19 183 44 183 7 0 47 -32 89 -71 130 -121
170 -245 117 -364 -12 -27 -19 -50 -17 -52 2 -2 28 15 57 39 48 39 135 148
183 229 l17 29 -46 20 c-70 30 -153 114 -188 190 -25 54 -29 77 -29 140 0 74
19 151 39 157 5 2 51 -35 101 -82 111 -104 154 -180 156 -273 0 -31 -3 -70 -7
-87 l-8 -30 21 25 c57 70 162 304 143 320 -4 3 -35 17 -68 30 -155 61 -227
156 -242 318 l-6 65 34 -7 c45 -9 155 -60 196 -92 47 -35 86 -109 99 -184 l11
-65 21 46 c19 40 45 165 54 254 l3 30 -80 7 c-180 15 -287 94 -341 252 -9 26
-14 49 -12 51 2 2 47 0 101 -5 166 -16 238 -64 300 -199 28 -60 31 -64 38 -41
9 33 11 128 3 223 l-7 75 -92 -5 c-72 -5 -103 -2 -145 12 -69 23 -140 92 -163
158 l-16 46 36 7 c45 8 169 -3 229 -21 56 -17 99 -56 116 -104 l12 -36 8 35
c9 43 1 137 -18 207 l-14 53 -53 -22 c-75 -31 -203 -31 -274 1 -48 21 -133 98
-133 119 0 12 63 39 123 53 64 15 163 7 213 -19 23 -11 55 -37 72 -56 17 -20
34 -36 37 -36 17 0 -15 101 -70 224 l-26 59 -22 -21 c-35 -31 -103 -62 -165
-73 -89 -17 -221 17 -262 67 -13 15 -10 20 24 50 104 90 289 100 375 21 l24
-22 -7 30 c-7 30 -114 225 -123 225 -2 0 -24 -16 -48 -35 -103 -85 -292 -103
-392 -37 -13 8 -23 18 -23 22 0 18 79 83 130 107 69 34 185 39 239 10 40 -20
48 -16 34 16 -14 31 -120 154 -139 161 -10 4 -37 -12 -72 -40 -82 -67 -146
-96 -222 -102 -62 -4 -128 7 -159 27 -34 22 85 148 166 175 59 20 123 20 170
1 20 -8 39 -13 42 -10 13 13 -29 63 -94 112 l-70 52 -20 -27 c-61 -86 -159
-143 -248 -145 -51 -1 -147 20 -147 32 0 3 16 27 35 54 75 101 178 143 280
115 46 -13 55 -13 55 -2 0 8 4 14 9 14 6 0 5 16 -1 38 -17 61 -4 155 31 226
29 59 104 156 120 156 17 0 56 -147 56 -210 0 -81 -33 -144 -100 -190 -49 -34
-54 -48 -27 -73 15 -13 180 -117 186 -117 1 0 -2 22 -7 49 -16 76 5 134 73
202 54 54 155 117 168 104 3 -3 6 -45 6 -93 0 -71 -4 -96 -23 -135 -27 -55
-97 -121 -147 -137 -19 -6 -34 -18 -34 -25 0 -18 64 -101 133 -174 32 -34 60
-61 61 -61 1 0 0 27 -2 59 -2 32 1 75 8 95 16 50 83 113 178 168 l81 46 7 -45
c21 -143 -55 -277 -183 -318 -32 -11 -62 -22 -67 -26 -8 -7 63 -152 118 -238
l29 -45 16 66 c21 83 59 140 113 172 48 28 145 56 195 56 31 0 33 -2 27 -27
-37 -169 -136 -262 -278 -263 l-59 0 6 -36 c8 -49 88 -264 99 -264 14 0 36 45
43 90 15 95 68 139 195 159 36 6 80 14 98 17 l33 5 -7 -38 c-27 -151 -120
-242 -261 -259 -26 -3 -57 -7 -69 -9 l-21 -5 17 -113 c19 -123 46 -220 60
-212 5 3 12 19 15 37 4 18 28 52 55 79 60 60 119 79 242 79 88 0 89 0 83 -22
-23 -79 -83 -155 -150 -191 -34 -19 -56 -22 -147 -22 l-106 0 -6 -34 c-7 -45
4 -252 15 -271 7 -13 8 -13 9 0 0 26 57 80 107 102 54 24 162 34 245 24 82
-10 88 -17 59 -71 -30 -56 -89 -110 -150 -138 -49 -23 -170 -30 -242 -14 l-36
7 -17 -57 c-9 -32 -25 -96 -36 -143 -10 -47 -23 -98 -29 -113 -16 -43 11 -35
74 23 63 57 85 65 163 57 62 -5 211 -63 219 -84 9 -24 -48 -84 -104 -110 -96
-44 -197 -41 -358 11 -18 6 -30 -14 -107 -169 -101 -201 -100 -202 29 -134 69
36 84 40 125 36 26 -3 65 -15 86 -26 43 -22 182 -137 182 -151 0 -4 -11 -11
-24 -14 -13 -3 -47 -22 -76 -42 -52 -36 -54 -36 -134 -32 -98 6 -150 28 -230
100 -56 50 -57 50 -78 32 -27 -25 -220 -275 -216 -280 2 -2 24 4 48 12 65 23
182 16 240 -14 56 -29 114 -83 151 -141 l29 -44 -48 -18 c-26 -9 -67 -25 -92
-34 -55 -20 -129 -9 -194 29 -41 24 -112 94 -151 149 l-20 27 -155 -120 c-85
-66 -156 -125 -158 -130 -5 -15 40 -12 113 6 l64 16 50 -27 c28 -15 75 -52
106 -82 60 -58 135 -153 135 -170 0 -17 -59 -34 -140 -40 -90 -7 -170 13 -242
59 -53 33 -153 137 -163 168 -3 11 -11 20 -17 20 -21 0 -274 -130 -293 -150
-18 -20 -18 -21 6 -38 80 -56 163 -157 215 -264 26 -55 29 -57 58 -50 17 4 62
7 99 7 60 0 71 -3 88 -24 27 -33 25 -92 -3 -118 -13 -12 -56 -31 -95 -43 l-73
-22 0 -36 c0 -21 -3 -66 -6 -102 l-7 -66 72 -28 c39 -15 78 -37 86 -49 16 -22
20 -64 9 -92 -16 -41 -112 -57 -186 -31 -37 13 -39 13 -67 -19 -16 -18 -43
-54 -61 -81 -27 -38 -31 -50 -21 -63 26 -36 55 -109 59 -151 6 -63 -19 -93
-77 -93 -48 0 -75 21 -119 90 -15 24 -31 43 -35 43 -5 0 -29 -9 -55 -20 -26
-11 -78 -31 -117 -43 l-70 -24 3 -46 c5 -61 -13 -111 -49 -142 -82 -68 -172
18 -157 150 3 29 2 30 -87 56 -49 15 -105 33 -124 41 -33 13 -34 12 -55 -17
-50 -71 -92 -105 -130 -105 -51 0 -76 28 -76 85 0 50 21 109 50 140 18 20 17
21 -46 100 -55 68 -69 80 -92 77 -15 -1 -53 -5 -84 -8 -54 -6 -59 -5 -88 24
-59 59 -31 122 71 158 56 20 53 12 36 148 l-12 89 -65 24 c-82 30 -104 54 -97
107 9 62 35 77 131 74 l78 -2 31 59 c42 85 130 198 187 242 27 21 49 43 50 50
0 20 -99 88 -199 137 -52 25 -99 46 -105 46 -6 0 -31 -25 -56 -56 -139 -174
-322 -234 -503 -165 l-28 11 42 57 c67 92 130 152 193 185 54 27 66 30 135 26
42 -3 84 -8 95 -13 37 -16 11 19 -48 65 -32 25 -98 78 -148 118 l-89 74 -77
-79 c-125 -128 -221 -159 -339 -109 -35 14 -72 26 -83 26 l-20 0 21 41 c29 58
104 128 169 158 74 34 140 38 213 14 31 -11 57 -16 57 -10 0 5 -10 23 -22 40
-39 57 -192 247 -198 247 -4 0 -33 -21 -66 -46 -32 -26 -87 -60 -122 -77 -55
-25 -71 -29 -131 -25 -56 3 -75 9 -105 31 -20 16 -52 35 -71 43 -19 8 -35 18
-35 23 0 16 95 95 142 119 59 29 150 45 207 37 25 -4 70 -20 99 -36 30 -17 52
-24 52 -17 0 6 -29 70 -64 142 -36 72 -71 147 -79 167 l-15 36 -73 -24 c-64
-22 -87 -25 -174 -21 -84 3 -108 8 -152 31 -60 31 -101 81 -86 105 31 50 189
90 282 72 59 -11 135 -50 150 -78 5 -9 11 -15 14 -12 4 5 0 25 -44 223 l-24
108 -55 -8 c-178 -26 -311 28 -376 151 -16 30 -26 57 -23 61 3 3 44 10 91 16
156 20 291 -22 321 -102 6 -16 14 -29 18 -29 15 0 37 304 23 313 -5 2 -32 0
-59 -6 -116 -24 -240 24 -303 117 -17 26 -36 62 -40 80 -7 26 -5 32 12 39 25
10 155 2 207 -13 74 -21 135 -79 148 -139 16 -79 53 -10 76 138 21 147 25 136
-47 151 -162 31 -262 122 -283 258 l-7 42 49 0 c142 0 265 -90 305 -222 12
-41 23 -48 31 -20 3 9 24 66 46 126 23 61 41 115 41 121 0 6 -30 16 -67 23
-143 27 -241 123 -267 261 l-6 34 63 -6 c173 -16 277 -110 277 -252 l0 -40 24
25 c22 23 151 250 144 255 -2 1 -30 12 -63 25 -124 50 -195 159 -195 300 0 39
3 70 6 70 3 0 48 -25 99 -55 145 -85 184 -142 173 -255 l-5 -49 29 20 c28 20
168 187 168 200 0 4 -20 19 -45 34 -59 34 -109 85 -137 138 -18 34 -22 59 -23
129 0 47 3 90 7 94 13 13 120 -50 173 -102 64 -64 84 -120 68 -198 -6 -28 -9
-53 -7 -55 4 -5 43 22 137 93 l65 50 -42 40 c-87 85 -118 217 -81 352 9 35 21
64 25 64 4 0 30 -24 56 -53z m755 -44 c-29 -107 -150 -219 -279 -257 -58 -17
-272 -33 -272 -21 0 5 7 17 16 26 9 10 40 53 68 95 28 42 68 91 89 108 38 30
41 31 175 37 135 6 177 16 195 46 15 25 19 7 8 -34z m374 0 c23 -27 26 -28
162 -33 154 -7 184 -16 249 -78 21 -21 59 -74 84 -118 l46 -80 -86 4 c-125 5
-187 18 -267 56 -117 56 -202 149 -218 239 -9 44 -2 46 30 10z m-324 -1469
l118 -95 119 95 c66 53 122 96 126 96 3 0 6 -13 6 -29 0 -21 -12 -39 -47 -72
-38 -34 -49 -52 -53 -83 -4 -34 -15 -47 -77 -99 l-73 -60 -72 60 c-65 53 -74
65 -78 101 -4 33 -14 48 -52 82 -37 32 -48 49 -48 71 0 16 3 29 6 29 4 0 60
-43 125 -96z m-53 -171 c90 -73 166 -133 170 -133 4 0 92 68 196 150 103 83
192 150 197 150 23 0 4 -113 -22 -130 -5 -4 -36 -28 -69 -55 l-60 -50 1 -59
c2 -41 -2 -62 -12 -70 -50 -38 -219 -177 -222 -184 -2 -4 -1 -20 2 -35 6 -28
9 -26 238 157 127 102 237 186 244 186 8 0 10 -20 7 -66 -4 -62 -7 -69 -40
-98 -20 -17 -64 -55 -98 -85 l-62 -54 5 -68 c4 -61 2 -71 -24 -110 -26 -40
-27 -44 -11 -53 43 -24 55 -82 27 -135 -22 -44 -74 -55 -119 -26 -23 16 -24
15 -87 -82 l-62 -98 -14 -159 c-7 -88 -15 -162 -18 -164 -3 -3 -5 6 -5 19 0
13 -5 87 -11 164 l-10 140 -61 93 c-57 87 -78 106 -93 82 -3 -5 -24 -10 -45
-10 -30 0 -43 6 -64 31 -14 17 -26 41 -26 54 0 35 20 74 42 80 24 8 23 20 -4
58 -19 26 -22 42 -19 99 1 37 0 77 -4 88 -3 10 -46 51 -94 89 -87 70 -88 71
-94 123 -4 29 -7 63 -7 76 0 22 0 22 27 5 15 -10 123 -95 240 -190 116 -94
214 -169 217 -165 3 3 6 18 6 33 0 22 -19 43 -115 120 l-115 94 0 62 0 62 -71
57 c-76 62 -89 83 -89 145 l0 40 33 -22 c17 -13 105 -83 195 -156z m252 -2353
c123 -23 239 -111 287 -217 53 -115 48 -266 -11 -368 -86 -146 -260 -225 -421
-192 -313 66 -429 442 -205 667 96 95 221 134 350 110z"/>
<path d="M4596 4814 c-20 -19 -20 -34 0 -62 17 -25 62 -30 70 -7 6 15 -32 85
-46 85 -5 0 -16 -7 -24 -16z"/>
<path d="M5061 4792 c-18 -35 -18 -42 -6 -52 8 -7 26 -10 40 -6 44 11 45 86 2
94 -10 2 -23 -11 -36 -36z"/>
</g>
</svg>
